<?xml version="1.0" encoding="UTF-8" standalone="no"?>
<!-- Created with Inkscape (http://www.inkscape.org/) -->

<svg
   version="1.1"
   id="svg1"
   width="98.559998"
   height="129.60001"
   viewBox="0 0 98.559998 129.60001"
   sodipodi:docname="logo_guardian.svg"
   inkscape:version="1.3.2 (091e20ef0f, 2023-11-25)"
   xmlns:inkscape="http://www.inkscape.org/namespaces/inkscape"
   xmlns:sodipodi="http://sodipodi.sourceforge.net/DTD/sodipodi-0.dtd"
   xmlns="http://www.w3.org/2000/svg"
   xmlns:svg="http://www.w3.org/2000/svg">
  <defs
     id="defs1" />
  <sodipodi:namedview
     id="namedview1"
     pagecolor="#505050"
     bordercolor="#eeeeee"
     borderopacity="1"
     inkscape:showpageshadow="0"
     inkscape:pageopacity="0"
     inkscape:pagecheckerboard="0"
     inkscape:deskcolor="#505050"
     inkscape:zoom="2.8284271"
     inkscape:cx="24.748737"
     inkscape:cy="117.91006"
     inkscape:window-width="960"
     inkscape:window-height="1011"
     inkscape:window-x="20"
     inkscape:window-y="20"
     inkscape:window-maximized="0"
     inkscape:current-layer="g1" />
  <g
     inkscape:groupmode="layer"
     inkscape:label="Image"
     id="g1">
    <g
       id="g155"
       inkscape:label="OWL"
       sodipodi:insensitive="true">
      <path
         style="fill:#4529b5"
         d="M 48.431256,18.357407 47.519999,17.150662 45.313513,14.823163 43.107027,12.495664 40.741495,10.860373 38.375963,9.2250819 35.427981,7.8567783 32.479999,6.4884747 30.265297,5.7599439 28.050594,5.0314131 l 0.59254,-0.4332759 0.59254,-0.4332759 2.902163,-1.1092821 2.902162,-1.109282 2.56,-0.6265294 2.56,-0.62652942 2.962932,-0.39246544 2.962932,-0.39246544 4.877068,0.190861 4.877068,0.190861 2.393882,0.52354319 2.393883,0.52354321 2.566117,0.8057627 2.566117,0.8057628 2.020616,0.9690635 2.020616,0.9690635 -0.260616,0.2428851 -0.260616,0.2428851 -2.363446,0.8425236 -2.363447,0.8425237 -2.242543,1.1254541 -2.242543,1.1254542 -2.132574,1.3795558 -2.132575,1.379556 -1.70646,1.70646 -1.70646,1.706459 -1.425206,1.939738 -1.425206,1.939738 -0.09851,0.102076 -0.09851,0.102076 z"
         id="path155"
         inkscape:label="top" />
      <path
         style="fill:#4529b5"
         d="m 57.919999,54.250802 v -0.149203 l 1.260993,-1.951003 1.260994,-1.951002 0.570508,-1.659795 0.570508,-1.659795 0.0085,-3.226419 0.0085,-3.22642 1.531981,0.769277 1.53198,0.769276 h 1.732034 1.732035 l 1.462581,-0.857129 1.462581,-0.85713 0.816261,-1.392845 0.816261,-1.392845 V 35.681135 33.8965 L 71.976744,32.431959 71.267772,30.967417 69.811237,30.04371 68.354703,29.120003 h -0.89735 -0.897351 v -0.267487 -0.267487 l 4.08,-1.697912 4.08,-1.697911 4.556088,-2.169594 4.556087,-2.169594 0.66422,1.494992 0.66422,1.494993 0.68371,2.4 0.683711,2.4 0.01452,3.680001 0.01452,3.68 -0.441225,1.76 -0.441226,1.76 -0.91122,2.030827 -0.911221,2.030827 -1.416814,1.985487 -1.416815,1.985487 -1.327505,1.199321 -1.327505,1.199322 -1.661772,1.061686 -1.661772,1.061687 -2.274201,0.819278 -2.274201,0.819279 -2.468954,0.3434 -2.468954,0.3434 h -3.81685 -3.816844 z"
         id="path154"
         inkscape:label="righteye" />
      <path
         style="fill:#4529b5"
         d="m 30.559999,54.199732 -0.64,-0.126029 -1.76,-0.344123 -1.76,-0.344124 -2.56,-1.22579 -2.56,-1.225789 -2.008442,-1.821427 -2.008443,-1.821427 -1.432086,-2.006888 -1.432086,-2.006889 -0.757699,-1.718622 -0.7577,-1.718622 -0.521772,-2.30317 -0.521771,-2.30317 0.0047,-2.97683 0.0047,-2.976831 0.453725,-1.923568 0.453726,-1.923569 0.857701,-2.313954 0.857702,-2.313955 2.007503,1.10314 2.007502,1.103139 4.27634,1.792802 4.27634,1.792803 2.32,0.984791 2.32,0.984791 v 0.27679 0.27679 h -0.652748 -0.652748 l -1.248714,0.637047 -1.248713,0.637046 -0.774345,1.042954 -0.774346,1.042954 -0.364193,1.087751 -0.364193,1.087752 0.007,1.152248 0.007,1.152249 0.582739,1.282745 0.582738,1.282744 1.166032,1.02379 1.166032,1.02379 1.335155,0.35952 1.335154,0.35952 1.02839,-0.192928 1.028389,-0.192927 1.560658,-0.791788 1.560657,-0.791787 v -0.0012 -0.0012 l 0.01491,3.279893 0.01492,3.279893 0.55344,1.627726 0.553441,1.627727 1.400482,2.132274 1.400482,2.132274 -4.848837,-0.03712 -4.848837,-0.03712 z"
         id="path153"
         inkscape:label="lefteye" />
      <path
         style="fill:#4529b5"
         d="m 47.451983,53.360003 -1.563122,-2.000001 -0.487404,-0.8 -0.487404,-0.8 -0.585299,-1.44 -0.585298,-1.44 -0.250752,-5.28 -0.250753,-5.28 -0.507894,-1.92 -0.507894,-1.92 -1.001478,-2.080001 -1.001478,-2.08 -2.591604,-2.562028 -2.591604,-2.562028 -2.72,-1.330385 -2.72,-1.330386 -5.44,-2.139936 L 18.72,16.255302 14.88,14.405458 11.04,12.555614 8.6012454,10.922245 6.1624911,9.2888769 5.009367,8.0125063 3.8562429,6.7361357 3.642152,5.8831296 3.4280612,5.0301235 3.7174613,4.1950619 4.0068614,3.3600002 5.1234306,2.7811788 6.2399998,2.2023574 7.789813,2.3696329 9.3396261,2.5369084 12.269813,4.1157129 15.2,5.6945173 l 3.009726,1.5082534 3.009726,1.5082534 6.507212,2.8061999 6.507212,2.806201 2.323061,1.369232 2.323062,1.369233 2.912925,2.909056 2.912926,2.909055 1.305734,2.379013 1.305734,2.379013 0.885174,2.420987 0.885173,2.420988 0.374724,-1.287028 0.374724,-1.287027 1.044715,-2.072973 1.044715,-2.072973 1.10231,-1.726204 1.102309,-1.726205 1.654418,-1.753498 1.654419,-1.753498 1.76,-1.352311 1.759999,-1.352312 2.4,-1.304662 2.4,-1.304662 4.64,-1.966815 4.64,-1.9668155 7.2,-3.5765092 7.2,-3.5765092 h 1.814219 1.81422 l 0.82578,0.7757805 0.825781,0.7757806 v 1.2538492 1.2538492 l -2,1.9929143 -2,1.9929141 -1.92,1.114906 -1.92,1.114906 -4.48,2.101353 -4.48,2.101353 -5.842843,2.31942 -5.842843,2.31942 -1.517157,0.980553 -1.517157,0.980553 -1.703094,1.425699 -1.703095,1.425698 -1.424348,2.115526 -1.424348,2.115526 -0.830812,2.560001 -0.830812,2.56 -0.229577,5.6 -0.229578,5.6 -0.592778,1.44 -0.592778,1.44 -0.49939,0.816763 -0.499389,0.816764 -1.567206,1.983237 -1.567205,1.983237 h -0.245241 -0.245242 z"
         id="path152"
         inkscape:label="egrets" />
      <path
         style="fill:#4529b5"
         d="m 46.517064,84.826052 -1.002934,-0.611559 -0.866737,-1.136351 -0.866737,-1.13635 -0.279858,-2.170894 -0.279859,-2.170894 -0.01047,-4.302831 -0.01047,-4.30283 -0.791059,1.58283 -0.79106,1.58283 -0.929069,1.123366 -0.929069,1.123366 -1.517145,0.757699 -1.517145,0.757699 -1.858222,-0.168498 -1.858221,-0.168498 -1.016387,-0.592567 -1.016386,-0.592566 0.127846,-2.74587 0.127846,-2.74587 0.873428,-1.785222 0.873427,-1.785222 1.259615,-1.297947 1.259615,-1.297947 1.615559,-0.818666 1.61556,-0.818666 2.732374,-0.988689 2.732373,-0.988688 0.08655,0.116393 0.08655,0.116393 1.463097,1.92 1.463098,1.92 0.939351,0.888078 0.939351,0.888078 1.579713,-1.688078 1.579713,-1.688078 0.99685,-1.227423 0.996851,-1.227422 3.157495,1.181651 3.157494,1.181651 0.8,0.413615 0.8,0.413616 1.463319,1.289458 1.463318,1.289459 1.085583,2.022698 1.085582,2.022697 0.0111,2.72 0.0111,2.720001 -1.427804,0.72 -1.427805,0.72 h -1.542473 -1.542473 l -1.029722,-0.441843 -1.029722,-0.441843 -1.024621,-1.078157 -1.024621,-1.078158 -0.92641,-1.694822 -0.926409,-1.694823 -0.20897,2.943983 -0.208969,2.943982 -0.0018,2.590841 -0.0018,2.59084 -0.315086,1.134194 -0.315087,1.134195 -1.043129,0.982891 -1.043128,0.982891 -1.087752,0.362915 -1.087751,0.362914 -1.312249,-0.0012 -1.312248,-0.0012 z"
         id="path151"
         inkscape:label="feather1" />
      <path
         style="fill:#4529b5"
         d="M 21.532103,102.8 19.257506,101.28 16.748753,99.133113 14.24,96.986222 12.56772,95.083319 10.895441,93.180415 9.0932063,90.67021 7.2909714,88.160004 l -1.8641594,-3.84 -1.8641594,-3.84 -0.990721,-3.04 -0.990721,-3.04 -0.64804191,-3.520001 -0.64804191,-3.52 -0.18718653,-4.16114 -0.18718654,-4.161141 0.39144222,-3.796716 0.39144221,-3.796717 0.93242896,-3.818441 0.932429,-3.818441 1.1448794,-2.783702 1.1448795,-2.783703 0.3890205,-0.40172 0.3890206,-0.401719 0.6078468,1.841719 0.6078467,1.84172 1.1738405,2.75105 1.1738405,2.751051 1.3396614,1.97274 1.339662,1.972739 1.9681,2.103905 1.9681,2.103906 1.3367,0.919674 c 0,0 1.0549,0.691494 1.336701,0.919674 0.281801,0.22818 0.06254,0.154809 0.401405,0.38048 0.338864,0.225671 1.728252,0.764316 1.728252,0.764316 l 1.728253,0.764315 1.923832,0.631562 1.923832,0.631561 1.787915,0.223385 1.787915,0.223386 v 0.154024 0.154025 l -1.284827,1.459641 -1.284827,1.459641 -0.953483,1.949463 -0.953483,1.949463 -0.32169,1.723677 -0.32169,1.723677 V 87.563681 104.32 H 24.22335 23.8067 Z"
         id="path150"
         inkscape:label="leftwing" />
      <path
         style="fill:#4529b5"
         d="M 73.919998,88.491708 V 72.282597 l -0.347565,-2.301297 -0.347565,-2.301297 -1.071173,-2.250792 -1.071173,-2.250793 -1.288965,-1.464342 -1.288966,-1.464342 2.185327,-0.360899 2.185327,-0.360899 2.300696,-0.778381 2.300695,-0.77838 2.165311,-1.286388 2.165311,-1.286388 1.916008,-1.859198 1.916009,-1.859199 1.316899,-1.76 1.316899,-1.76 1.29606,-2.536682 1.296061,-2.536683 0.847138,-2.583318 0.847139,-2.583317 0.269681,-0.293417 0.26968,-0.293417 0.919412,2.053417 0.919412,2.053417 0.841082,2.56 0.841081,2.56 0.35469,1.6 0.354689,1.6 0.302163,1.76 0.302162,1.760001 0.305437,4.129592 0.305437,4.129592 -0.323595,4.030408 -0.323594,4.030408 -0.753222,3.36 -0.753222,3.360001 -1.194828,3.2 -1.194828,3.2 -0.806163,1.6 -0.806163,1.6 -1.441345,2.4 -1.441345,2.4 -1.785327,2.24 -1.785327,2.24 -2.109413,2.108502 -2.109414,2.108502 -2.378306,1.769102 -2.378307,1.7691 -1.52,0.8728 -1.52,0.87281 z"
         id="path149"
         inkscape:label="rightwing" />
      <path
         style="fill:#4529b5"
         d="m 46.879999,105.65581 -1.28,-0.60542 -0.547796,-0.6169 -0.547796,-0.61691 -0.492204,-1.17801 -0.492204,-1.17801 -0.01722,-6.490278 -0.01722,-6.490278 -0.972036,2.013012 -0.972036,2.013012 -1.170741,1.149309 -1.170741,1.149308 -1.12,0.477372 -1.12,0.477373 -1.606198,-0.01275 -1.606198,-0.01275 -1.353802,-0.541684 -1.353802,-0.541685 v -7.805254 -7.805255 l 0.24,0.0048 0.24,0.0048 1.28,0.461136 1.28,0.461136 h 1.76 1.76 l 1.164321,-0.41598 1.16432,-0.41598 0.202557,1.790026 0.202557,1.790026 0.768227,1.6 0.768227,1.6 0.947575,1.040618 0.947574,1.040617 1.877139,0.859383 1.877138,0.859382 1.920182,-0.0062 1.920183,-0.0062 1.6,-0.826118 1.6,-0.826118 1.184208,-1.227648 1.184208,-1.227647 0.646566,-1.465294 0.646567,-1.465293 0.213284,-1.814707 0.213283,-1.814706 h 0.07686 0.07686 l 1.148802,0.48 1.148802,0.48 H 62.88 64.660556 l 1.148802,-0.48 1.148802,-0.48 H 67.23908 67.52 v 7.7914 7.791401 l -1.2,0.50718 -1.2,0.50718 -1.177485,0.191696 -1.177486,0.191697 -1.539068,-0.387542 -1.539068,-0.387542 -1.498328,-1.538276 -1.498327,-1.538276 -0.585119,-1.334536 -0.585118,-1.334535 -0.20527,1.890077 -0.205269,1.890076 -0.04176,4.160001 -0.04176,4.159994 -0.603574,1.32929 -0.603574,1.32928 -1.488203,0.87214 -1.488204,0.87215 -1.341194,0.12918 -1.341195,0.12918 z"
         id="path148"
         inkscape:label="feather2" />
      <path
         style="fill:#4529b5"
         d="m 46.233296,128.82255 -1.286703,-0.7714 -0.793297,-1.38557 -0.793297,-1.38557 9.83e-4,-8 9.83e-4,-8 -0.86601,1.76 -0.866011,1.76 -1.374972,1.43246 -1.374973,1.43246 -0.217862,0.22388 -1.291301,0.4556 -1.291302,0.4556 h -2.519767 -2.519768 v -8.8 -8.800005 l 0.24,0.0048 0.24,0.0048 1.28,0.461136 1.28,0.461129 h 1.76 1.76 l 1.158578,-0.413998 1.158577,-0.414006 0.190168,2.036454 0.190167,2.03646 0.635542,1.43675 0.635543,1.43675 1.695712,1.68568 1.695713,1.68569 1.317126,0.38916 1.317126,0.38916 h 1.802874 c 0,0 1.342097,0.0605 1.802874,0 0.460777,-0.0605 0.544112,-0.0841 0.952102,-0.25456 0.40799,-0.17042 1.438541,-0.84304 1.438541,-0.84304 l 1.438542,-0.84305 0.821601,-1.02968 0.8216,-1.02967 0.21407,-0.25993 0.265192,-0.32421 0.319083,-0.39433 0.225408,-0.36325 0.389004,-1.88914 0.389004,-1.88915 -0.08523,-1.04 -0.08523,-1.039991 h 0.08792 0.08792 l 1.360465,0.48 1.360464,0.479991 h 1.50891 1.50891 l 1.570857,-0.476528 1.570858,-0.476536 0.08,-0.0035 0.08,-0.0035 v 8.763664 8.76367 l -1.36,0.20358 -1.36,0.20359 -1.6,-0.30425 -1.6,-0.30426 -0.8,-0.3145 -0.799999,-0.31451 -1.663697,-1.70849 -1.663697,-1.70849 -0.610983,-1.37332 -0.610982,-1.37331 -0.205321,1.49797 -0.20532,1.49798 v 6.17451 6.1745 l -0.340358,0.90083 -0.340358,0.90084 c 0,0 -0.573095,0.60571 -0.859642,0.90856 -0.286548,0.30286 -0.527036,0.65716 -0.859642,0.90857 -0.259248,0.19596 -0.576073,0.30095 -0.864109,0.45143 -0.288037,0.15048 -0.548435,0.37425 -0.864109,0.45144 -0.549118,0.13428 -1.695891,-0.003 -1.695891,-0.003 l -1.695891,-0.003 z"
         id="path4"
         inkscape:label="feather3" />
    </g>
  </g>
</svg>
